<?xml version="1.0" standalone="no"?><!DOCTYPE svg PUBLIC "-//W3C//DTD SVG 1.1//EN" "http://www.w3.org/Graphics/SVG/1.1/DTD/svg11.dtd"><svg t="1570673753644" class="icon" viewBox="0 0 1840 1024" version="1.1" xmlns="http://www.w3.org/2000/svg" p-id="12523" xmlns:xlink="http://www.w3.org/1999/xlink" width="230" height="128"><defs><style type="text/css"></style></defs><path d="M1840.653891 874.473732c-3.641906 64.825932-45.471802 120.078854-105.979473 135.999187-62.952952 16.54466-126.009958-11.6541-159.099279-73.410425-43.286658-80.85032-85.116553-162.481049-127.570775-243.799614l-249.730719-478.650544c-34.390001-65.970531-26.637943-131.472818 20.810894-176.37232 67.635403-64.30566 173.146631-45.211665 219.138705 40.99746 49.686008 93.128747 97.915253 187.298039 146.768824 280.686922 77.624632 148.849914 155.561427 297.543746 232.301596 446.861904 10.769637 20.966975 15.712224 45.003557 23.360227 67.68743z" fill="#E99519" p-id="12524"></path><path d="M1035.948678 1024c-47.136673-0.93649-79.549639-17.533178-101.244995-55.148867-106.707855-185.321004-214.248146-370.173763-320.747892-555.546794-33.349456-58.010365-11.185855-126.426176 50.258308-161.752667 64.149578-36.887308 132.825526-22.37171 167.267554 36.887308 104.782847 180.430444 208.108932 361.537242 313.724215 541.603495 24.4528 41.621786 31.632558 82.35911 6.295295 124.86536-27.002134 44.795448-67.843512 67.531348-115.552485 69.092165z" fill="#E9951A" p-id="12525"></path><path d="M148.98841 891.798801c-83.243573-3.225688-151.763439-74.190834-148.901941-153.792501 3.121634-86.209125 73.618535-154.468855 156.497917-151.451275 84.700335 3.069607 152.908038 75.95976 148.849914 159.047251-4.006097 81.630729-76.219896 149.266131-156.44589 146.196525z" fill="#E9961B" p-id="12526"></path></svg>