<?xml version="1.0" standalone="no"?><!DOCTYPE svg PUBLIC "-//W3C//DTD SVG 1.1//EN" "http://www.w3.org/Graphics/SVG/1.1/DTD/svg11.dtd"><svg t="1570673644918" class="icon" viewBox="0 0 1835 1024" version="1.1" xmlns="http://www.w3.org/2000/svg" p-id="12258" xmlns:xlink="http://www.w3.org/1999/xlink" width="229.375" height="128"><defs><style type="text/css"></style></defs><path d="M662.895591 139.812623c-7.495051 22.745397-11.971261 46.844067-22.849495 68.027994q-188.20905 363.145614-378.187764 725.406395c-32.374455 61.938266-87.546355 90.252902-151.722727 79.426717a131.787974 131.787974 0 0 1-109.823311-121.638426 172.64641 172.64641 0 0 1 19.154018-86.713572c114.507718-222.561365 230.733052-444.029702 346.646093-665.810332 13.220437-25.295796 25.60809-51.216179 40.858435-75.31485a135.327303 135.327303 0 0 1 154.116979-57.253859c59.439916 18.321235 97.85205 70.422247 101.807772 133.869933zM795.880691 1023.968354c-80.103354 2.081959-171.084941-98.893029-105.659395-193.570093 18.633529-27.013412 33.363385-56.681321 49.810857-85.204152q130.590848-226.048646 261.233745-452.045242c31.229378-54.339117 83.278341-73.961576 141.573179-54.807558 60.168601 19.778606 99.36147 73.389038 93.219692 130.903142a121.274083 121.274083 0 0 1-15.614689 46.011283Q1061.798842 691.323433 902.581064 966.662446c-22.537201 39.088771-55.744439 57.7223-106.700373 57.305908z" fill="#E99519" p-id="12259"></path><path d="M1834.986184 738.687989a153.856734 153.856734 0 0 1-151.566579 153.232147c-81.873019 1.249175-151.670678-68.964876-151.722727-152.55551a151.670678 151.670678 0 1 1 303.289306-0.676637z" fill="#E9951A" p-id="12260"></path></svg>