{
    "asset" : {
        "generator" : "Khronos glTF Blender I/O v0.9.36",
        "version" : "2.0"
    },
    "scene" : 0,
    "scenes" : [
        {
            "name" : "Scene",
            "nodes" : [
                0,
                1
            ]
        }
    ],
    "nodes" : [
        {
            "mesh" : 0,
            "name" : "floor",
            "scale" : [
                1.5738023519515991,
                1,
                5.877634525299072
            ],
            "translation" : [
                -0.052494049072265625,
                1.0549015998840332,
                -0.0245363712310791
            ]
        },
        {
            "mesh" : 1,
            "name" : "grass",
            "scale" : [
                1.673568606376648,
                1,
                5.922474384307861
            ],
            "translation" : [
                -0.052494049072265625,
                1.0919225215911865,
                -0.0245363712310791
            ]
        }
    ],
    "materials" : [
        {
            "doubleSided" : true,
            "name" : "Material",
            "pbrMetallicRoughness" : {
                "baseColorFactor" : [
                    0.8000000715255737,
                    0.18415385484695435,
                    0.22449688613414764,
                    1
                ],
                "metallicFactor" : 0,
                "roughnessFactor" : 0.4000000059604645
            }
        },
        {
            "doubleSided" : true,
            "name" : "Material.001",
            "pbrMetallicRoughness" : {
                "baseColorFactor" : [
                    0.3240625262260437,
                    0.8000000715255737,
                    0.08686286211013794,
                    1
                ],
                "metallicFactor" : 0,
                "roughnessFactor" : 0.5
            }
        }
    ],
    "meshes" : [
        {
            "name" : "Cube",
            "primitives" : [
                {
                    "attributes" : {
                        "POSITION" : 0,
                        "NORMAL" : 1,
                        "TEXCOORD_0" : 2
                    },
                    "indices" : 3,
                    "material" : 0
                }
            ]
        },
        {
            "name" : "Cube.002",
            "primitives" : [
                {
                    "attributes" : {
                        "POSITION" : 4,
                        "NORMAL" : 5,
                        "TEXCOORD_0" : 6
                    },
                    "indices" : 7,
                    "material" : 1
                }
            ]
        }
    ],
    "accessors" : [
        {
            "bufferView" : 0,
            "componentType" : 5126,
            "count" : 9728,
            "max" : [
                1.0000001192092896,
                0.9892096519470215,
                0.998222291469574
            ],
            "min" : [
                -1.0000001192092896,
                -0.9944242238998413,
                -0.9971372485160828
            ],
            "type" : "VEC3"
        },
        {
            "bufferView" : 1,
            "componentType" : 5126,
            "count" : 9728,
            "type" : "VEC3"
        },
        {
            "bufferView" : 2,
            "componentType" : 5126,
            "count" : 9728,
            "type" : "VEC2"
        },
        {
            "bufferView" : 3,
            "componentType" : 5123,
            "count" : 14592,
            "type" : "SCALAR"
        },
        {
            "bufferView" : 4,
            "componentType" : 5126,
            "count" : 65086,
            "max" : [
                1.0000001192092896,
                0.9892096519470215,
                0.998222291469574
            ],
            "min" : [
                -1.0000001192092896,
                -0.04703320562839508,
                -0.9971372485160828
            ],
            "type" : "VEC3"
        },
        {
            "bufferView" : 5,
            "componentType" : 5126,
            "count" : 65086,
            "type" : "VEC3"
        },
        {
            "bufferView" : 6,
            "componentType" : 5126,
            "count" : 65086,
            "type" : "VEC2"
        },
        {
            "bufferView" : 7,
            "componentType" : 5123,
            "count" : 97632,
            "type" : "SCALAR"
        }
    ],
    "bufferViews" : [
        {
            "buffer" : 0,
            "byteLength" : 116736,
            "byteOffset" : 0
        },
        {
            "buffer" : 0,
            "byteLength" : 116736,
            "byteOffset" : 116736
        },
        {
            "buffer" : 0,
            "byteLength" : 77824,
            "byteOffset" : 233472
        },
        {
            "buffer" : 0,
            "byteLength" : 29184,
            "byteOffset" : 311296
        },
        {
            "buffer" : 0,
            "byteLength" : 781032,
            "byteOffset" : 340480
        },
        {
            "buffer" : 0,
            "byteLength" : 781032,
            "byteOffset" : 1121512
        },
        {
            "buffer" : 0,
            "byteLength" : 520688,
            "byteOffset" : 1902544
        },
        {
            "buffer" : 0,
            "byteLength" : 195264,
            "byteOffset" : 2423232
        }
    ],
    "buffers" : [
        {
            "byteLength" : 2618496,
            "uri" : "data:application/octet-stream;base64,"
        }
    ]
}
