{
    "asset" : {
        "generator" : "Khronos glTF Blender I/O v0.9.36",
        "version" : "2.0"
    },
    "scene" : 0,
    "scenes" : [
        {
            "name" : "Scene",
            "nodes" : [
                0
            ]
        }
    ],
    "nodes" : [
        {
            "mesh" : 0,
            "name" : "tree4.001",
            "rotation" : [
                0.707684338092804,
                0,
                0,
                0.7065287828445435
            ],
            "scale" : [
                0.6989402174949646,
                0.6989402174949646,
                0.6989402174949646
            ],
            "translation" : [
                0.0053806304931640625,
                1.7840943336486816,
                0.0284728966653347
            ]
        }
    ],
    "materials" : [
        {
            "doubleSided" : true,
            "name" : "Material.004",
            "pbrMetallicRoughness" : {
                "baseColorTexture" : {
                    "index" : 0,
                    "texCoord" : 0
                },
                "metallicFactor" : 0,
                "roughnessFactor" : 0.5
            }
        }
    ],
    "meshes" : [
        {
            "name" : "Cube.001",
            "primitives" : [
                {
                    "attributes" : {
                        "POSITION" : 0,
                        "NORMAL" : 1,
                        "TEXCOORD_0" : 2
                    },
                    "indices" : 3,
                    "material" : 0
                }
            ]
        }
    ],
    "textures" : [
        {
            "source" : 0
        }
    ],
    "images" : [
        {
            "bufferView" : 4,
            "mimeType" : "image/png",
            "name" : "tree-color"
        }
    ],
    "accessors" : [
        {
            "bufferView" : 0,
            "componentType" : 5126,
            "count" : 2944,
            "max" : [
                0.9890882968902588,
                0.9886364936828613,
                2.4444353580474854
            ],
            "min" : [
                -0.9906249642372131,
                -0.9900732040405273,
                -1.0000001192092896
            ],
            "type" : "VEC3"
        },
        {
            "bufferView" : 1,
            "componentType" : 5126,
            "count" : 2944,
            "type" : "VEC3"
        },
        {
            "bufferView" : 2,
            "componentType" : 5126,
            "count" : 2944,
            "type" : "VEC2"
        },
        {
            "bufferView" : 3,
            "componentType" : 5123,
            "count" : 4416,
            "type" : "SCALAR"
        }
    ],
    "bufferViews" : [
        {
            "buffer" : 0,
            "byteLength" : 35328,
            "byteOffset" : 0
        },
        {
            "buffer" : 0,
            "byteLength" : 35328,
            "byteOffset" : 35328
        },
        {
            "buffer" : 0,
            "byteLength" : 23552,
            "byteOffset" : 70656
        },
        {
            "buffer" : 0,
            "byteLength" : 8832,
            "byteOffset" : 94208
        },
        {
            "buffer" : 0,
            "byteLength" : 502294,
            "byteOffset" : 103040
        }
    ],
    "buffers" : [
        {
            "byteLength" : 605336,
            "uri" : "data:application/octet-stream;base64,"
        }
    ]
}
